<?xml version="1.0" encoding="iso-8859-1"?>
<!-- Generator: Adobe Illustrator 16.0.0, SVG Export Plug-In . SVG Version: 6.00 Build 0)  -->
<!DOCTYPE svg PUBLIC "-//W3C//DTD SVG 1.1//EN" "http://www.w3.org/Graphics/SVG/1.1/DTD/svg11.dtd">
<svg version="1.1" xmlns="http://www.w3.org/2000/svg" xmlns:xlink="http://www.w3.org/1999/xlink" x="0px" y="0px"
	 width="231.291px" height="40.058px" viewBox="0 0 231.291 40.058" style="enable-background:new 0 0 231.291 40.058;"
	 xml:space="preserve">
<g id="Layer_1_copy">
	<rect x="-0.625" y="-0.692" style="fill:#F7F8F8;" width="51.75" height="13.75"/>
	<rect x="125.375" y="-0.692" style="fill:#F7F8F8;" width="37.5" height="13.75"/>
	<rect x="-0.625" y="13.058" style="fill:#F7F8F8;" width="51.75" height="14.25"/>
	<rect x="-0.625" y="27.308" style="fill:#F7F8F8;" width="51.75" height="13"/>
	<rect x="51.125" y="27.308" style="fill:#010101;" width="0.75" height="13.75"/>
	<rect x="51.125" y="13.058" style="fill:#010101;" width="180.75" height="0.75"/>
	<rect x="51.125" y="27.308" style="fill:#010101;" width="180.75" height="0.75"/>
	<rect x="-0.625" y="27.308" style="fill:#010101;" width="52.5" height="0.75"/>
	<rect x="51.125" y="13.058" style="fill:#010101;" width="0.75" height="15"/>
	<rect x="162.875" y="13.058" style="fill:#010101;" width="69" height="0.75"/>
	<rect x="125.375" y="13.058" style="fill:#010101;" width="38.25" height="0.75"/>
	<rect x="162.875" y="-0.692" style="fill:#010101;" width="0.75" height="14.5"/>
	<rect x="51.125" y="13.058" style="fill:#010101;" width="75" height="0.75"/>
	<rect x="125.375" y="-0.692" style="fill:#010101;" width="0.75" height="14.5"/>
	<rect x="-0.625" y="13.058" style="fill:#010101;" width="52.5" height="0.75"/>
	<rect x="51.125" y="-0.692" style="fill:#010101;" width="0.75" height="14.5"/>
	<line style="fill:#010101;" x1="126.125" y1="-0.692" x2="126.125" y2="0.058"/>
	<line style="fill:#010101;" x1="51.125" y1="0.058" x2="51.125" y2="-0.692"/>
	<line style="fill:#010101;" x1="-0.625" y1="0.058" x2="-0.625" y2="-0.692"/>
	<line style="fill:#010101;" x1="51.875" y1="-0.692" x2="51.875" y2="0.058"/>
	<path style="fill:#010101;" d="M7.962,4.038v5.48H8.5V7.095h0.943V6.642H8.5V4.292c0-0.007,0-0.011,0.001-0.012
		C8.504,4.273,8.509,4.262,8.52,4.242c0.023-0.06,0.028-0.107,0.016-0.14C8.501,4.059,8.429,4.038,8.319,4.038H7.962z M5.743,4.639
		L5.318,4.576C5.293,5.383,5.138,6.08,4.856,6.668C4.592,7.151,4.197,7.579,3.672,7.952l0.386,0.304
		C4.45,7.989,4.774,7.675,5.031,7.312c0.247-0.35,0.407-0.706,0.481-1.068c0.032,0.274,0.186,0.601,0.461,0.978
		c0.274,0.38,0.578,0.673,0.909,0.877l0.402-0.374c-0.398-0.223-0.739-0.548-1.02-0.977c-0.3-0.457-0.453-0.925-0.46-1.404
		L5.84,5.061c0.003-0.033,0.011-0.068,0.022-0.106C5.87,4.936,5.881,4.91,5.896,4.878c0.028-0.065,0.039-0.115,0.032-0.149
		C5.897,4.683,5.835,4.653,5.743,4.639z"/>
	<path style="fill:#010101;" d="M11.636,8.262h2.635V8.89h-2.635V8.262z M14.58,7.276h-0.309v0.568h-2.635V7.542
		c0-0.011,0.002-0.025,0.006-0.041c0-0.008,0.001-0.016,0.005-0.022c0.021-0.057,0.018-0.104-0.008-0.138
		c-0.022-0.029-0.094-0.048-0.213-0.059h-0.321V9.5h0.531V9.295h2.635v0.193h0.52V7.561c0-0.023,0.001-0.041,0.004-0.053
		c0.003-0.008,0.008-0.019,0.017-0.031c0.022-0.069,0.017-0.119-0.017-0.151C14.766,7.303,14.693,7.287,14.58,7.276z M11.643,4.872
		c0.293,0,0.517,0.068,0.671,0.204c0.169,0.168,0.254,0.354,0.254,0.557c0,0.201-0.083,0.378-0.249,0.532
		C12.161,6.322,11.936,6.4,11.643,6.4c-0.292,0-0.522-0.083-0.691-0.247c-0.155-0.146-0.234-0.319-0.234-0.521
		c0-0.205,0.077-0.38,0.232-0.523C11.12,4.951,11.351,4.872,11.643,4.872z M11.655,4.394c-0.459,0-0.824,0.128-1.093,0.385
		c-0.25,0.229-0.375,0.514-0.375,0.854c0,0.333,0.132,0.619,0.394,0.858c0.257,0.25,0.615,0.375,1.075,0.375
		c0.458,0,0.824-0.13,1.096-0.39c0.252-0.231,0.378-0.512,0.378-0.843c0-0.338-0.14-0.629-0.419-0.87
		C12.463,4.517,12.111,4.394,11.655,4.394z M14.621,3.989h-0.35v1.348h-1.082v0.459h1.082v1.19h0.539V4.279
		c0-0.016,0.004-0.032,0.013-0.049c0.002-0.009,0.013-0.025,0.032-0.047c0.03-0.062,0.028-0.11-0.006-0.144
		C14.824,4.02,14.748,4.004,14.621,3.989z"/>
	<path style="fill:#010101;" d="M20.941,4.026h-0.354v5.408h0.532V7.042h0.985V6.576h-0.985V4.346c0-0.032,0.003-0.062,0.01-0.088
		c0.004-0.017,0.012-0.037,0.022-0.063c0.015-0.054,0.011-0.1-0.01-0.136C21.106,4.042,21.039,4.031,20.941,4.026z M16.634,4.539
		l0.007,0.447h1.391c0.014,0.352-0.008,0.625-0.069,0.818c-0.078,0.222-0.194,0.471-0.349,0.749
		c-0.159,0.286-0.344,0.546-0.553,0.779c-0.228,0.22-0.477,0.401-0.748,0.545l0.46,0.349c0.32-0.208,0.614-0.467,0.883-0.776
		c0.276-0.322,0.476-0.706,0.6-1.151c0.115,0.413,0.302,0.799,0.562,1.159c0.275,0.34,0.577,0.588,0.91,0.745l0.411-0.391
		c-0.586-0.269-1.014-0.709-1.281-1.324c-0.219-0.413-0.322-0.913-0.311-1.5h1.386V4.539H16.634z"/>
	<path style="fill:#010101;" d="M25.415,7.959c0.498,0,0.861,0.056,1.09,0.167c0.248,0.124,0.372,0.288,0.372,0.492
		c0,0.201-0.124,0.361-0.37,0.48c-0.23,0.115-0.594,0.172-1.092,0.172c-0.5,0-0.876-0.062-1.125-0.187
		c-0.221-0.108-0.332-0.264-0.332-0.466c0-0.206,0.118-0.368,0.354-0.488C24.547,8.016,24.914,7.959,25.415,7.959z M25.415,7.524
		c-0.651,0-1.159,0.107-1.522,0.321c-0.314,0.174-0.472,0.432-0.472,0.773c0,0.338,0.167,0.604,0.501,0.796
		c0.343,0.198,0.841,0.298,1.493,0.298c0.65,0,1.158-0.111,1.523-0.334c0.318-0.169,0.478-0.422,0.478-0.759
		c0-0.34-0.161-0.6-0.484-0.78C26.569,7.629,26.063,7.524,25.415,7.524z M22.804,6.582v0.453h5.227V6.582H22.804z M23.505,4.225
		v1.777h3.91V5.542h-3.378V4.685h3.294V4.225H23.505z"/>
	<path style="fill:#010101;" d="M29.729,7.627v0.454h3.396v1.547h0.514v-2H29.729z M29.113,6.691v0.453h5.227V6.691h-2.345V6.267
		c0-0.015,0.003-0.031,0.008-0.046c0.003-0.011,0.012-0.027,0.025-0.049c0.022-0.06,0.022-0.105,0.001-0.134
		c-0.028-0.028-0.09-0.042-0.186-0.042h-0.381v0.695H29.113z M29.814,4.225v0.453h3.312v0.314h-3.312v1.293h3.91V5.832h-3.402V5.446
		h3.317V4.225H29.814z"/>
	<path style="fill:#010101;" d="M36.327,7.738h-0.356V9.26h4.091V8.807h-3.547V7.991c0-0.007,0.001-0.014,0.004-0.021
		c0.007-0.014,0.015-0.026,0.021-0.038c0.027-0.059,0.03-0.104,0.008-0.136C36.528,7.763,36.455,7.743,36.327,7.738z M35.893,5.967
		h1.595v0.942h-1.595V5.967z M35.652,4.517h-0.285v2.84h2.659V4.776c0-0.013,0-0.022,0.002-0.027
		c0.006-0.005,0.017-0.021,0.036-0.049c0.027-0.043,0.032-0.083,0.015-0.123c-0.03-0.03-0.102-0.05-0.215-0.06h-0.375v1.021h-1.595
		v-0.78c0-0.008,0.001-0.015,0.003-0.023c0.005-0.008,0.009-0.017,0.015-0.026c0.033-0.053,0.036-0.099,0.012-0.138
		C35.891,4.54,35.801,4.522,35.652,4.517z M39.687,3.985h-0.35v1.946h-1.184v0.453h1.184v1.825h0.538V4.287
		c0-0.02,0.004-0.038,0.014-0.055c0.001-0.007,0.011-0.019,0.026-0.034c0.034-0.061,0.039-0.11,0.014-0.147
		C39.898,4.021,39.818,4,39.687,3.985z"/>
	<path style="fill:#010101;" d="M44.226,6.154c0.337,0,0.612,0.07,0.823,0.211c0.152,0.106,0.229,0.244,0.229,0.411
		c0,0.168-0.081,0.307-0.244,0.417c-0.201,0.141-0.47,0.212-0.808,0.212c-0.336,0-0.603-0.071-0.799-0.213
		c-0.16-0.107-0.24-0.246-0.24-0.416c0-0.168,0.079-0.307,0.238-0.414C43.624,6.224,43.89,6.154,44.226,6.154z M44.22,5.719h-0.048
		c-0.497,0-0.894,0.124-1.191,0.372c-0.246,0.155-0.368,0.387-0.368,0.697c0,0.32,0.156,0.581,0.469,0.782
		c0.275,0.18,0.575,0.27,0.897,0.27v0.683h-2.375v0.465h5.324V8.523h-2.423V7.84c0.301,0,0.585-0.092,0.854-0.277
		c0.306-0.214,0.458-0.496,0.458-0.841c0-0.323-0.146-0.564-0.435-0.721C45.07,5.813,44.683,5.719,44.22,5.719z M42.026,5.012v0.459
		h4.423V5.012H42.026z M43.308,4.19v0.435h1.74V4.19H43.308z"/>
	<path style="fill:#010101;" d="M139.895,10.48c-0.963,0-1.676-0.114-2.138-0.343c-0.544-0.237-0.815-0.588-0.815-1.055
		c0-0.447,0.256-0.791,0.769-1.031c0.502-0.221,1.224-0.331,2.167-0.331c0.962,0,1.71,0.117,2.243,0.353
		c0.485,0.222,0.728,0.558,0.728,1.01c0,0.451-0.253,0.797-0.759,1.038C141.579,10.36,140.848,10.48,139.895,10.48z M139.886,8.344
		c-0.708,0-1.243,0.069-1.606,0.208c-0.353,0.146-0.529,0.328-0.529,0.548c0,0.231,0.167,0.413,0.501,0.543
		c0.381,0.147,0.938,0.222,1.67,0.222c0.704,0,1.241-0.074,1.61-0.222c0.339-0.132,0.508-0.313,0.508-0.543
		c0-0.223-0.169-0.401-0.508-0.533C141.148,8.418,140.6,8.344,139.886,8.344z M140.22,4.662V5.33h1.837v2.197h0.782V3
		c0-0.021,0-0.034,0.001-0.037c0.008-0.008,0.02-0.03,0.034-0.066c0.041-0.099,0.052-0.168,0.033-0.208
		c-0.024-0.062-0.114-0.093-0.271-0.093h-0.58v2.065H140.22z M138.68,2.891l-0.622-0.092c0.047,0.985-0.176,1.825-0.667,2.521
		c-0.428,0.711-0.99,1.239-1.688,1.584l0.594,0.483c0.521-0.295,0.974-0.678,1.357-1.147c0.308-0.389,0.539-0.816,0.692-1.279
		c0.127,0.438,0.372,0.856,0.736,1.256c0.319,0.35,0.728,0.675,1.225,0.977l0.59-0.495c-0.56-0.26-1.044-0.663-1.452-1.209
		c-0.444-0.598-0.666-1.204-0.666-1.82c0-0.097,0.017-0.191,0.049-0.282c0.011-0.048,0.034-0.104,0.071-0.168
		c0.043-0.098,0.055-0.173,0.034-0.226C138.896,2.944,138.813,2.91,138.68,2.891z"/>
	<path style="fill:#010101;" d="M149.176,10.506c-0.977,0-1.726-0.13-2.246-0.391c-0.495-0.235-0.742-0.598-0.742-1.086
		c0-0.46,0.257-0.806,0.771-1.038c0.504-0.234,1.237-0.351,2.199-0.351c0.923,0,1.61,0.111,2.064,0.334
		c0.546,0.247,0.818,0.598,0.818,1.055c0,0.468-0.252,0.831-0.756,1.089C150.786,10.377,150.083,10.506,149.176,10.506z
		 M149.167,8.292c-0.736,0-1.312,0.076-1.725,0.229c-0.31,0.122-0.464,0.298-0.464,0.527c0,0.244,0.173,0.433,0.519,0.569
		c0.387,0.153,0.955,0.23,1.705,0.23c0.663,0,1.173-0.076,1.528-0.229c0.323-0.138,0.484-0.328,0.484-0.571
		c0-0.229-0.171-0.409-0.513-0.542C150.356,8.363,149.845,8.292,149.167,8.292z M149.554,4.143v0.659h1.67v1.143h-1.679v0.668h1.679
		v1.116h0.782V3c0-0.017,0.002-0.032,0.004-0.045c0.004-0.011,0.011-0.027,0.021-0.047c0.036-0.095,0.039-0.165,0.009-0.207
		c-0.035-0.035-0.122-0.052-0.262-0.052h-0.554v1.494H149.554z M148.314,4.073v2.294h-2.127V4.073H148.314z M145.44,3.431v3.586
		h3.639V3.431H145.44z"/>
	<path style="fill:#010101;" d="M21.143,24.094c-0.957,0-1.686-0.12-2.183-0.36c-0.514-0.244-0.771-0.599-0.771-1.063
		c0-0.472,0.257-0.825,0.771-1.063c0.492-0.229,1.214-0.343,2.164-0.343c0.935,0,1.647,0.114,2.14,0.343
		c0.507,0.234,0.761,0.588,0.761,1.063c0,0.451-0.253,0.803-0.758,1.056C22.765,23.971,22.056,24.094,21.143,24.094z M21.134,21.923
		c-0.719,0-1.28,0.07-1.685,0.211c-0.313,0.127-0.469,0.311-0.469,0.554c0,0.22,0.161,0.396,0.482,0.527
		c0.405,0.146,0.971,0.22,1.697,0.22c0.675,0,1.183-0.067,1.523-0.203c0.344-0.144,0.516-0.325,0.516-0.544
		c0-0.241-0.169-0.43-0.508-0.566C22.339,21.99,21.82,21.923,21.134,21.923z M23.182,16.131v5.054h0.782v-1.512h1.371v-0.659h-1.371
		V16.5c0-0.011,0-0.017,0.001-0.019c0.004-0.008,0.013-0.025,0.026-0.053c0.034-0.088,0.042-0.156,0.023-0.205
		c-0.05-0.062-0.154-0.093-0.314-0.093H23.182z M19.778,16.634l-0.587-0.037c0.064,0.861-0.133,1.597-0.593,2.207
		c-0.459,0.668-1.012,1.176-1.657,1.521l0.576,0.481c0.48-0.272,0.919-0.636,1.314-1.09c0.397-0.489,0.646-0.926,0.742-1.31
		c0.104,0.396,0.323,0.752,0.654,1.066c0.361,0.432,0.823,0.809,1.384,1.131l0.576-0.543c-0.591-0.27-1.108-0.675-1.553-1.216
		c-0.447-0.522-0.671-1.031-0.671-1.528c0-0.072,0.008-0.134,0.021-0.188c0.011-0.035,0.028-0.079,0.054-0.129
		c0.044-0.111,0.057-0.193,0.039-0.246C20.046,16.689,19.945,16.649,19.778,16.634z"/>
	<path style="fill:#010101;" d="M30.292,19.339c0.49,0,0.89,0.103,1.197,0.308c0.222,0.155,0.332,0.354,0.332,0.598
		c0,0.244-0.118,0.446-0.354,0.604c-0.292,0.207-0.684,0.31-1.175,0.31c-0.489,0-0.877-0.103-1.163-0.31
		c-0.232-0.156-0.349-0.357-0.349-0.604c0-0.245,0.115-0.446,0.346-0.602C29.416,19.441,29.804,19.339,30.292,19.339z
		 M30.283,18.707h-0.07c-0.723,0-1.3,0.18-1.731,0.541c-0.357,0.226-0.536,0.563-0.536,1.015c0,0.466,0.228,0.845,0.682,1.138
		c0.4,0.261,0.836,0.392,1.305,0.392v0.993h-3.454v0.677h7.743v-0.677h-3.524v-0.993c0.438,0,0.852-0.134,1.241-0.401
		c0.444-0.313,0.666-0.722,0.666-1.225c0-0.471-0.211-0.82-0.633-1.049C31.52,18.843,30.957,18.707,30.283,18.707z M27.093,17.678
		v0.668h6.434v-0.668H27.093z M28.956,16.483v0.633h2.531v-0.633H28.956z"/>
	<path style="fill:#010101;" d="M17.108,34.863v0.659h3.507v3.305h0.809v-3.305h3.542v-0.659H17.108z M17.987,31.092v0.633h2.672
		c0,0.351-0.314,0.741-0.943,1.172c-0.59,0.423-1.262,0.671-2.019,0.745l0.56,0.632c0.621-0.115,1.194-0.339,1.719-0.671
		c0.54-0.356,0.906-0.73,1.096-1.122c0.16,0.374,0.505,0.747,1.034,1.118c0.523,0.347,1.087,0.584,1.691,0.71l0.51-0.662
		c-0.446-0.037-0.84-0.129-1.183-0.275c-0.33-0.15-0.619-0.325-0.865-0.524c-0.25-0.23-0.445-0.453-0.587-0.67
		c-0.118-0.215-0.178-0.365-0.178-0.452h2.54v-0.633H17.987z"/>
	<path style="fill:#010101;" d="M26.275,37.042v0.677h7.875v-0.677h-3.524V35.39c0-0.02,0.005-0.043,0.015-0.066
		c0.005-0.02,0.016-0.043,0.032-0.071c0.033-0.089,0.041-0.151,0.023-0.188c-0.051-0.064-0.162-0.096-0.334-0.096h-0.571v2.074
		H26.275z M26.53,34.291l0.563,0.66c0.714-0.205,1.335-0.49,1.864-0.859c0.6-0.42,1.027-0.889,1.285-1.408
		c0.217,0.439,0.611,0.856,1.185,1.25c0.594,0.416,1.272,0.72,2.036,0.912l0.537-0.666c-0.51-0.093-0.955-0.221-1.336-0.383
		c-0.422-0.193-0.783-0.412-1.082-0.653c-0.289-0.237-0.522-0.488-0.699-0.752c-0.143-0.224-0.214-0.437-0.214-0.64
		c0-0.006,0.002-0.012,0.006-0.02c0.008-0.012,0.021-0.029,0.038-0.053c0.047-0.076,0.066-0.137,0.06-0.181
		c-0.012-0.074-0.112-0.125-0.299-0.151l-0.584-0.105c-0.013,0.439-0.131,0.85-0.354,1.23c-0.192,0.313-0.433,0.596-0.721,0.853
		c-0.368,0.265-0.752,0.478-1.151,0.64C27.29,34.121,26.912,34.228,26.53,34.291z"/>
</g>
<g id="Layer_3">
	<g>
		<path style="fill:#010101;" d="M56.995,7.481c0.016,0.365,0.14,0.658,0.37,0.878c0.236,0.221,0.551,0.331,0.943,0.331
			c0.402,0,0.719-0.131,0.95-0.395c0.23-0.258,0.347-0.612,0.347-1.063c0-0.467-0.121-0.832-0.362-1.096
			c-0.237-0.263-0.56-0.395-0.967-0.395c-0.27,0-0.506,0.048-0.709,0.145c-0.199,0.097-0.357,0.239-0.476,0.427h-0.451l0.435-2.949
			h2.82v0.443h-2.434l-0.273,1.869c0.134-0.124,0.298-0.218,0.491-0.282c0.198-0.064,0.427-0.097,0.685-0.097
			c0.548,0,0.985,0.172,1.313,0.516c0.327,0.35,0.491,0.814,0.491,1.394c0,0.591-0.172,1.058-0.516,1.402
			c-0.338,0.349-0.792,0.524-1.361,0.524c-0.543,0-0.978-0.15-1.305-0.452c-0.328-0.295-0.503-0.695-0.524-1.2H56.995z"/>
		<path style="fill:#010101;" d="M62.893,4.372C62.758,4.479,62.58,4.56,62.36,4.613c-0.221,0.054-0.491,0.081-0.813,0.081h-0.089
			V4.339h0.04c0.473,0,0.827-0.091,1.063-0.274s0.368-0.473,0.396-0.87h0.475v5.769h-0.539V4.372z"/>
		<path style="fill:#010101;" d="M66.614,7.481c0.016,0.365,0.14,0.658,0.37,0.878c0.236,0.221,0.551,0.331,0.943,0.331
			c0.402,0,0.719-0.131,0.95-0.395c0.23-0.258,0.347-0.612,0.347-1.063c0-0.467-0.121-0.832-0.362-1.096
			c-0.237-0.263-0.56-0.395-0.967-0.395c-0.27,0-0.506,0.048-0.709,0.145c-0.199,0.097-0.357,0.239-0.476,0.427H66.26l0.435-2.949
			h2.82v0.443h-2.434l-0.273,1.869c0.134-0.124,0.298-0.218,0.491-0.282c0.198-0.064,0.427-0.097,0.685-0.097
			c0.548,0,0.985,0.172,1.313,0.516c0.327,0.35,0.491,0.814,0.491,1.394c0,0.591-0.172,1.058-0.516,1.402
			c-0.338,0.349-0.792,0.524-1.361,0.524c-0.543,0-0.978-0.15-1.305-0.452c-0.328-0.295-0.503-0.695-0.524-1.2H66.614z"/>
		<path style="fill:#010101;" d="M74.769,5.942v0.443h-4.109V5.942H74.769z"/>
		<path style="fill:#010101;" d="M76.113,5.39c-0.123-0.199-0.185-0.436-0.185-0.71c0-0.452,0.145-0.812,0.435-1.081
			c0.301-0.274,0.706-0.412,1.217-0.412c0.505,0,0.904,0.138,1.2,0.412c0.295,0.269,0.443,0.629,0.443,1.081
			c0,0.274-0.064,0.511-0.193,0.71c-0.129,0.199-0.325,0.371-0.588,0.516c0.311,0.124,0.556,0.315,0.732,0.573
			c0.178,0.263,0.267,0.567,0.267,0.912c0,0.527-0.167,0.946-0.5,1.258c-0.333,0.323-0.787,0.484-1.361,0.484
			c-0.58,0-1.039-0.162-1.378-0.484c-0.328-0.312-0.491-0.731-0.491-1.258c0-0.344,0.086-0.648,0.258-0.912
			c0.177-0.258,0.424-0.449,0.741-0.573C76.441,5.761,76.242,5.589,76.113,5.39z M76.638,8.327c0.241,0.242,0.556,0.363,0.942,0.363
			s0.701-0.124,0.942-0.371c0.242-0.242,0.362-0.561,0.362-0.959c0-0.371-0.118-0.663-0.354-0.878
			C78.3,6.268,77.982,6.16,77.58,6.16c-0.419,0-0.741,0.107-0.967,0.322s-0.339,0.523-0.339,0.926
			C76.274,7.779,76.396,8.085,76.638,8.327z M76.767,5.434c0.193,0.188,0.464,0.283,0.813,0.283c0.344,0,0.612-0.094,0.806-0.283
			c0.188-0.178,0.282-0.423,0.282-0.736c0-0.334-0.097-0.596-0.29-0.785c-0.193-0.189-0.46-0.283-0.798-0.283
			c-0.344,0-0.612,0.094-0.806,0.283c-0.188,0.188-0.282,0.45-0.282,0.785C76.492,5.011,76.583,5.256,76.767,5.434z"/>
		<path style="fill:#010101;" d="M82.188,4.372c-0.135,0.107-0.313,0.188-0.532,0.242c-0.221,0.054-0.491,0.081-0.813,0.081h-0.089
			V4.339h0.04c0.473,0,0.827-0.091,1.063-0.274s0.368-0.473,0.396-0.87h0.475v5.769h-0.539V4.372z"/>
		<path style="fill:#010101;" d="M89.254,5.942v0.443h-4.109V5.942H89.254z"/>
		<path style="fill:#010101;" d="M92.653,7.538h-2.481V7.103l2.441-3.738h0.58v3.738h0.766v0.435h-0.766v1.426h-0.54V7.538z
			 M92.653,4.049l-1.99,3.053h1.99V4.049z"/>
		<path style="fill:#010101;" d="M94.958,8.794c0-0.43,0.115-0.812,0.347-1.146c0.22-0.312,0.574-0.619,1.063-0.919l0.572-0.347
			c0.236-0.14,0.402-0.242,0.499-0.307c0.161-0.107,0.287-0.207,0.379-0.299c0.123-0.145,0.212-0.285,0.266-0.419
			c0.06-0.14,0.089-0.301,0.089-0.484c0-0.382-0.11-0.678-0.33-0.888c-0.215-0.205-0.514-0.307-0.895-0.307
			c-0.425,0-0.747,0.121-0.967,0.362c-0.226,0.242-0.338,0.596-0.338,1.063h-0.548c0.016-0.617,0.185-1.09,0.507-1.418
			c0.328-0.333,0.784-0.5,1.37-0.5c0.531,0,0.953,0.151,1.265,0.452c0.316,0.301,0.476,0.71,0.476,1.227
			c0,0.236-0.038,0.449-0.113,0.637c-0.075,0.188-0.19,0.369-0.346,0.541c-0.119,0.129-0.282,0.264-0.492,0.404
			c-0.118,0.081-0.325,0.204-0.62,0.371l-0.402,0.234C96.33,7.284,96.03,7.509,95.837,7.73c-0.205,0.231-0.317,0.49-0.339,0.774
			h3.183v0.459h-3.723V8.794z"/>
		<path style="fill:#010101;" d="M101.484,4.372c-0.135,0.107-0.313,0.188-0.532,0.242c-0.221,0.054-0.491,0.081-0.813,0.081h-0.089
			V4.339h0.04c0.473,0,0.827-0.091,1.063-0.274s0.368-0.473,0.396-0.87h0.475v5.769h-0.539V4.372z"/>
		<path style="fill:#010101;" d="M105.028,5.39c-0.123-0.199-0.185-0.436-0.185-0.71c0-0.452,0.145-0.812,0.435-1.081
			c0.301-0.274,0.706-0.412,1.217-0.412c0.505,0,0.904,0.138,1.2,0.412c0.295,0.269,0.443,0.629,0.443,1.081
			c0,0.274-0.064,0.511-0.193,0.71c-0.129,0.199-0.325,0.371-0.588,0.516c0.311,0.124,0.556,0.315,0.732,0.573
			c0.178,0.263,0.267,0.567,0.267,0.912c0,0.527-0.167,0.946-0.5,1.258c-0.333,0.323-0.787,0.484-1.361,0.484
			c-0.58,0-1.039-0.162-1.378-0.484c-0.328-0.312-0.491-0.731-0.491-1.258c0-0.344,0.086-0.648,0.258-0.912
			c0.177-0.258,0.424-0.449,0.741-0.573C105.356,5.761,105.157,5.589,105.028,5.39z M105.553,8.327
			c0.241,0.242,0.556,0.363,0.942,0.363s0.701-0.124,0.942-0.371c0.242-0.242,0.362-0.561,0.362-0.959
			c0-0.371-0.118-0.663-0.354-0.878c-0.23-0.215-0.548-0.322-0.95-0.322c-0.419,0-0.741,0.107-0.967,0.322s-0.339,0.523-0.339,0.926
			C105.189,7.779,105.311,8.085,105.553,8.327z M105.682,5.434c0.193,0.188,0.464,0.283,0.813,0.283
			c0.344,0,0.612-0.094,0.806-0.283c0.188-0.178,0.282-0.423,0.282-0.736c0-0.334-0.097-0.596-0.29-0.785
			c-0.193-0.189-0.46-0.283-0.798-0.283c-0.344,0-0.612,0.094-0.806,0.283c-0.188,0.188-0.282,0.45-0.282,0.785
			C105.407,5.011,105.498,5.256,105.682,5.434z"/>
		<path style="fill:#010101;" d="M110.354,8.424c0.188,0.177,0.443,0.266,0.766,0.266c0.478,0,0.843-0.215,1.096-0.645
			c0.252-0.43,0.39-1.066,0.411-1.91c-0.14,0.285-0.333,0.502-0.58,0.653c-0.253,0.15-0.548,0.226-0.887,0.226
			c-0.531,0-0.953-0.172-1.265-0.517c-0.312-0.35-0.467-0.821-0.467-1.413c0-0.581,0.158-1.044,0.475-1.389
			c0.322-0.339,0.758-0.509,1.306-0.509c0.634,0,1.12,0.229,1.458,0.686c0.344,0.457,0.516,1.124,0.516,2
			c0,1.065-0.183,1.875-0.548,2.429c-0.36,0.554-0.878,0.831-1.555,0.831c-0.457,0-0.825-0.129-1.104-0.387
			c-0.28-0.258-0.441-0.615-0.483-1.071h0.507C110.042,8.002,110.16,8.252,110.354,8.424z M110.313,6.175
			c0.215,0.264,0.521,0.396,0.919,0.396c0.37,0,0.677-0.137,0.918-0.412c0.242-0.27,0.362-0.609,0.362-1.018
			c0-0.463-0.115-0.832-0.346-1.107c-0.231-0.269-0.538-0.404-0.919-0.404c-0.414,0-0.728,0.121-0.942,0.364
			c-0.21,0.242-0.314,0.598-0.314,1.066C109.991,5.545,110.099,5.917,110.313,6.175z"/>
	</g>
	<g>
		<path style="fill:#010101;" d="M168.986,3.083c0.017,0.011,0.009,0.038-0.023,0.081c-0.017,0.021-0.027,0.04-0.032,0.056
			c-0.006,0.022-0.009,0.043-0.009,0.064v0.935h1.725V3.034h0.362c0.113,0.005,0.183,0.021,0.21,0.048
			c0.016,0.016,0.01,0.048-0.017,0.097c-0.011,0.021-0.019,0.038-0.024,0.048c-0.005,0.016-0.008,0.035-0.008,0.056v3.142h-2.755
			V3.034h0.33C168.874,3.045,168.954,3.061,168.986,3.083z M168.922,6.007h1.725V4.621h-1.725V6.007z M174.328,7.208v2.441h-0.54
			V7.667h-4.777V7.208H174.328z M174.4,2.542c0.021,0.016,0.019,0.054-0.008,0.113c-0.021,0.032-0.035,0.059-0.04,0.08
			c-0.011,0.038-0.017,0.078-0.017,0.121v3.948h-0.539V5.201h-0.919V6.7h-0.523V2.655h0.395c0.107,0.011,0.172,0.027,0.193,0.048
			c0.011,0.016,0.005,0.046-0.016,0.089c-0.017,0.027-0.027,0.054-0.032,0.081c-0.012,0.021-0.017,0.051-0.017,0.088v1.829h0.919
			V2.494h0.354C174.29,2.505,174.374,2.521,174.4,2.542z"/>
		<path style="fill:#010101;" d="M179.025,2.768c0.011,0.022,0,0.064-0.032,0.129c-0.038,0.064-0.063,0.121-0.072,0.169
			c-0.032,0.091-0.049,0.185-0.049,0.282c0,0.58,0.21,1.152,0.629,1.716c0.381,0.51,0.818,0.87,1.313,1.08l-0.459,0.354
			c-0.414-0.263-0.766-0.553-1.056-0.87c-0.327-0.36-0.571-0.752-0.732-1.176c-0.193,0.451-0.433,0.857-0.718,1.216
			c-0.338,0.414-0.725,0.75-1.16,1.007l-0.467-0.347c0.623-0.284,1.133-0.757,1.53-1.418c0.462-0.655,0.672-1.415,0.629-2.28
			l0.459,0.081C178.947,2.728,179.009,2.747,179.025,2.768z M181.958,9.189c0.43-0.204,0.645-0.497,0.645-0.878
			c0-0.381-0.218-0.671-0.652-0.87c-0.451-0.198-1.112-0.298-1.982-0.298c-0.854,0-1.507,0.1-1.958,0.298
			c-0.435,0.205-0.652,0.495-0.652,0.87c0,0.393,0.218,0.688,0.652,0.887c0.446,0.209,1.104,0.314,1.975,0.314
			C180.843,9.512,181.501,9.404,181.958,9.189z M181.515,7.763c0.344,0.135,0.516,0.322,0.516,0.564
			c0,0.248-0.172,0.438-0.516,0.572c-0.35,0.14-0.852,0.209-1.507,0.209c-0.682,0-1.203-0.07-1.563-0.209
			c-0.344-0.134-0.516-0.325-0.516-0.572c0-0.236,0.169-0.424,0.508-0.564c0.364-0.139,0.878-0.209,1.538-0.209
			C180.642,7.554,181.154,7.624,181.515,7.763z M182.047,4.339V2.446h0.451c0.102,0,0.158,0.014,0.169,0.041
			c0.011,0.016,0,0.056-0.032,0.121c-0.011,0.027-0.021,0.046-0.032,0.057c-0.006,0.027-0.008,0.051-0.008,0.072v4.069h-0.548V4.791
			h-1.685V4.339H182.047z"/>
		<path style="fill:#010101;" d="M186.937,7.594c1.192-0.038,2.173-0.089,2.941-0.153l0.12,0.427
			c-0.703,0.048-1.455,0.086-2.256,0.113c-0.811,0.032-1.579,0.051-2.304,0.056c-0.06,0.006-0.116,0.016-0.169,0.032
			c-0.032,0.011-0.076,0.03-0.129,0.057c-0.055,0.027-0.092,0.038-0.113,0.032c-0.027-0.011-0.054-0.057-0.08-0.137l-0.113-0.419
			C185.193,7.618,185.895,7.616,186.937,7.594z M189.685,3.815V4.25h-4.424V3.815H189.685z M188.669,5.024
			c0.269,0.226,0.403,0.5,0.403,0.822s-0.135,0.594-0.403,0.814c-0.301,0.252-0.709,0.378-1.225,0.378
			c-0.521,0-0.935-0.126-1.24-0.378c-0.27-0.22-0.403-0.492-0.403-0.814s0.134-0.596,0.403-0.822
			c0.306-0.242,0.719-0.362,1.24-0.362C187.96,4.662,188.368,4.782,188.669,5.024z M186.614,5.314
			c-0.188,0.145-0.281,0.325-0.281,0.54c0,0.22,0.094,0.403,0.281,0.548c0.21,0.167,0.489,0.25,0.838,0.25
			c0.35,0,0.623-0.083,0.822-0.25c0.188-0.145,0.282-0.328,0.282-0.548c0-0.215-0.095-0.395-0.282-0.54
			c-0.199-0.161-0.473-0.242-0.822-0.242C187.104,5.072,186.824,5.153,186.614,5.314z M188.443,2.857v0.387h-1.885V2.857H188.443z
			 M190.941,2.535c0.021,0.011,0.016,0.04-0.017,0.088c-0.021,0.027-0.038,0.048-0.048,0.064c-0.012,0.032-0.017,0.064-0.017,0.097
			v6.76h-0.548V2.486h0.371C190.828,2.497,190.914,2.513,190.941,2.535z"/>
	</g>
	<g>
		<path style="fill:#010101;" d="M57.567,17.549c-0.216,0.65-0.322,1.354-0.322,2.111c0,0.725,0.094,1.396,0.281,2.014
			c0.193,0.623,0.497,1.222,0.911,1.797h-0.387c-0.441-0.538-0.769-1.123-0.983-1.757c-0.221-0.639-0.33-1.324-0.33-2.054
			s0.109-1.415,0.33-2.055c0.215-0.633,0.542-1.216,0.983-1.748h0.387C58.051,16.395,57.761,16.958,57.567,17.549z"/>
		<path style="fill:#010101;" d="M66.606,19.628v0.443h-3.247v3.03h-0.571v-3.03h-3.215v-0.443H66.606z M65.753,16.171v0.419h-2.329
			c0,0.145,0.057,0.32,0.17,0.524c0.139,0.215,0.316,0.417,0.531,0.604c0.252,0.215,0.526,0.39,0.822,0.524
			c0.338,0.145,0.689,0.231,1.055,0.258l-0.41,0.459c-0.511-0.113-1.005-0.327-1.482-0.645c-0.468-0.327-0.796-0.671-0.983-1.031
			c-0.221,0.376-0.566,0.72-1.039,1.031c-0.483,0.306-0.988,0.511-1.515,0.612l-0.459-0.435c0.66-0.059,1.275-0.292,1.845-0.701
			c0.58-0.397,0.87-0.798,0.87-1.201h-2.449v-0.419H65.753z"/>
		<path style="fill:#010101;" d="M68.138,15.857c0.429,0.532,0.754,1.115,0.975,1.748c0.22,0.64,0.33,1.324,0.33,2.055
			s-0.11,1.416-0.33,2.054c-0.221,0.634-0.546,1.219-0.975,1.757h-0.403c0.408-0.575,0.712-1.174,0.91-1.797
			c0.193-0.618,0.29-1.289,0.29-2.014c0-0.73-0.097-1.404-0.29-2.022c-0.198-0.623-0.502-1.216-0.91-1.78H68.138z"/>
		<path style="fill:#010101;" d="M71.69,16.937c0.016,0.011,0.013,0.04-0.008,0.088c-0.022,0.027-0.035,0.048-0.041,0.064
			c-0.011,0.027-0.016,0.06-0.016,0.097v1.16h2.377v-1.442h0.459c0.086,0,0.134,0.008,0.145,0.024
			c0.011,0.011,0.006,0.038-0.016,0.081c-0.017,0.027-0.027,0.048-0.032,0.064c-0.006,0.032-0.008,0.062-0.008,0.089v3.916h-3.465
			v-4.166h0.395C71.594,16.913,71.663,16.921,71.69,16.937z M71.626,18.774v1.853h2.377v-1.853H71.626z M76.911,15.978
			c0.112,0,0.177,0.011,0.193,0.032c0.011,0.016,0,0.051-0.032,0.105c-0.011,0.021-0.021,0.04-0.032,0.056
			c-0.006,0.016-0.008,0.035-0.008,0.057v6.913h-0.548v-7.163H76.911z"/>
		<path style="fill:#010101;" d="M83.888,16.276c0.011,0.016,0.006,0.046-0.016,0.088c-0.011,0.016-0.021,0.03-0.032,0.041
			c-0.006,0.021-0.008,0.043-0.008,0.064v6.034h-0.54v-3.013h-1.056c0,0.489-0.124,0.911-0.37,1.265
			c-0.313,0.451-0.758,0.677-1.338,0.677c-0.473,0-0.854-0.236-1.144-0.709c-0.27-0.435-0.4-0.953-0.396-1.555
			c0-0.601,0.138-1.109,0.411-1.522c0.295-0.451,0.701-0.677,1.217-0.677c0.531,0,0.939,0.201,1.225,0.604
			c0.269,0.366,0.399,0.846,0.395,1.442h1.056v-2.788h0.354C83.78,16.239,83.861,16.255,83.888,16.276z M79.812,18.008
			c-0.183,0.317-0.274,0.715-0.274,1.192c0,0.467,0.092,0.865,0.274,1.192c0.198,0.366,0.47,0.548,0.813,0.548
			c0.333,0,0.602-0.182,0.806-0.548c0.178-0.327,0.266-0.725,0.266-1.192c0-0.478-0.088-0.875-0.266-1.192
			c-0.204-0.365-0.473-0.548-0.806-0.548C80.281,17.46,80.01,17.644,79.812,18.008z M85.379,16.01
			c0.021,0.011,0.016,0.041-0.017,0.089c-0.021,0.032-0.038,0.056-0.048,0.072c-0.012,0.032-0.017,0.064-0.017,0.097v6.776H84.75
			v-7.082h0.371C85.266,15.978,85.352,15.994,85.379,16.01z"/>
		<path style="fill:#010101;" d="M94.402,21.747v0.516h-7.01v-0.516H94.402z M91.284,16.751c0.011,0.016,0.002,0.043-0.024,0.081
			c-0.021,0.027-0.035,0.054-0.04,0.081c-0.017,0.032-0.024,0.064-0.024,0.097c0.032,0.28,0.132,0.567,0.298,0.862
			c0.167,0.29,0.387,0.551,0.661,0.781c0.273,0.242,0.582,0.433,0.927,0.572c0.364,0.15,0.741,0.226,1.128,0.226l-0.403,0.5
			c-0.569-0.086-1.136-0.309-1.7-0.669c-0.645-0.408-1.042-0.873-1.192-1.394c-0.14,0.489-0.483,0.932-1.031,1.329
			c-0.537,0.382-1.16,0.645-1.869,0.79l-0.459-0.459c0.939-0.156,1.676-0.464,2.208-0.927c0.58-0.51,0.87-1.17,0.87-1.982
			l0.459,0.048C91.203,16.703,91.268,16.725,91.284,16.751z"/>
		<path style="fill:#010101;" d="M98.68,21.634V19.87h0.419c0.118,0.005,0.188,0.024,0.21,0.056c0.011,0.022,0.002,0.06-0.024,0.113
			c-0.021,0.027-0.035,0.048-0.04,0.064c-0.011,0.032-0.017,0.064-0.017,0.097v1.434h3.521v0.443H95.65v-0.443H98.68z
			 M101.862,17.034c0,0.521-0.048,1.142-0.145,1.861c-0.097,0.763-0.224,1.432-0.379,2.006h-0.572
			c0.086-0.285,0.164-0.577,0.233-0.878c0.064-0.3,0.118-0.585,0.161-0.854l-3.786,0.266c-0.118,0.005-0.221,0.021-0.307,0.048
			c-0.054,0.016-0.123,0.04-0.209,0.072c-0.075,0.027-0.121,0.038-0.137,0.032c-0.038-0.01-0.073-0.056-0.105-0.137l-0.152-0.476
			c0.493,0,1.17-0.021,2.03-0.064c0.967-0.042,1.874-0.099,2.723-0.169c0.037-0.29,0.062-0.518,0.072-0.685
			c0.021-0.23,0.027-0.424,0.017-0.58h-4.665v-0.443H101.862z"/>
		<path style="fill:#010101;" d="M105.335,17.863c0.016,0.016,0.013,0.046-0.008,0.089c-0.017,0.027-0.027,0.048-0.032,0.064
			c-0.006,0.032-0.006,0.062,0,0.088l0.201,2.997c0.166-0.005,0.352-0.013,0.556-0.024c0.23-0.016,0.424-0.029,0.58-0.041
			l0.274-3.239l0.41,0.048c0.129,0.022,0.204,0.046,0.226,0.073c0.011,0.016-0.005,0.051-0.048,0.104
			c-0.021,0.027-0.038,0.048-0.049,0.064c-0.016,0.027-0.026,0.057-0.032,0.089l-0.266,2.828l1.192-0.145l0.04,0.443
			c-0.44,0.059-1.063,0.116-1.869,0.169c-0.456,0.027-1.096,0.06-1.917,0.097l-0.379,0.024c-0.07,0-0.132,0.011-0.186,0.032
			c-0.032,0.011-0.067,0.027-0.104,0.048c-0.043,0.021-0.072,0.03-0.089,0.024c-0.021-0.01-0.046-0.053-0.072-0.129l-0.129-0.443
			c0.161,0,0.368,0,0.62,0c0.285,0,0.524-0.002,0.718-0.008l-0.258-3.295h0.387C105.23,17.829,105.308,17.842,105.335,17.863z
			 M108.163,16.792v0.451h-4.069v-0.451H108.163z M109.428,18.637v-2.578h0.443c0.097,0,0.149,0.014,0.161,0.041
			c0.01,0.016,0.002,0.051-0.024,0.104c-0.017,0.027-0.027,0.048-0.032,0.064c-0.006,0.027-0.008,0.051-0.008,0.073v6.937h-0.54
			v-4.19h-1.829v-0.451H109.428z"/>
		<path style="fill:#010101;" d="M115.011,17.074v2.224h-2.063v1.684c0.403-0.011,0.852-0.045,1.346-0.105
			c0.537-0.075,0.939-0.155,1.208-0.242l0.073,0.483c-0.474,0.103-0.959,0.183-1.459,0.242c-0.602,0.081-1.171,0.121-1.708,0.121
			v-2.619h2.055v-1.329H112.4v-0.459H115.011z M116.356,19.297v-3.142h0.419c0.102,0,0.161,0.014,0.177,0.041
			c0.006,0.016-0.005,0.051-0.032,0.104c-0.011,0.038-0.019,0.064-0.023,0.081c-0.006,0.016-0.009,0.038-0.009,0.064v6.083h-0.531
			v-2.804h-1.12v-0.427H116.356z M118.161,15.986c0.112,0,0.177,0.011,0.193,0.032c0.011,0.016,0,0.051-0.032,0.104
			c-0.011,0.022-0.021,0.041-0.032,0.057c-0.006,0.016-0.008,0.035-0.008,0.056v6.792h-0.524v-7.042H118.161z"/>
		<path style="fill:#010101;" d="M123.905,17.557c0.312,0.451,0.468,1.01,0.468,1.676c0,0.661-0.156,1.217-0.468,1.668
			c-0.36,0.516-0.838,0.773-1.434,0.773c-0.603,0-1.075-0.258-1.418-0.773c-0.322-0.451-0.483-1.007-0.483-1.668
			c0-0.666,0.161-1.225,0.483-1.676c0.343-0.504,0.815-0.757,1.418-0.757C123.067,16.8,123.545,17.053,123.905,17.557z
			 M121.48,17.863c-0.231,0.371-0.347,0.825-0.347,1.362c0,0.532,0.115,0.98,0.347,1.345c0.247,0.414,0.58,0.621,0.999,0.621
			s0.746-0.207,0.982-0.621c0.221-0.365,0.331-0.813,0.331-1.345c0-0.537-0.11-0.991-0.331-1.362
			c-0.236-0.408-0.563-0.612-0.982-0.612S121.728,17.456,121.48,17.863z M126.637,15.954c0.016,0.016,0.011,0.046-0.017,0.088
			c-0.026,0.038-0.043,0.07-0.048,0.097c-0.017,0.043-0.024,0.089-0.024,0.137v6.744h-0.563v-7.123h0.419
			C126.537,15.914,126.615,15.933,126.637,15.954z"/>
		<path style="fill:#010101;" d="M131.035,16.373c0.092,0,0.143,0.016,0.153,0.048c0.005,0.027-0.011,0.081-0.048,0.161
			c-0.022,0.054-0.038,0.094-0.049,0.121c-0.016,0.054-0.027,0.108-0.032,0.161c-0.075,0.57,0.075,1.16,0.451,1.772
			c0.359,0.58,0.806,1.002,1.338,1.265l-0.387,0.427c-0.393-0.279-0.736-0.606-1.031-0.983c-0.339-0.435-0.572-0.889-0.701-1.361
			c-0.178,0.526-0.44,0.988-0.79,1.386c-0.295,0.333-0.72,0.69-1.272,1.071l-0.347-0.443c0.666-0.317,1.209-0.811,1.628-1.482
			c0.424-0.682,0.631-1.396,0.62-2.143H131.035z M130.343,20.853c0.011,0.011,0.002,0.04-0.024,0.088
			c-0.011,0.022-0.019,0.041-0.024,0.057c-0.005,0.021-0.008,0.043-0.008,0.064v1.587h4.601v0.443h-5.132V20.82h0.395
			C130.257,20.82,130.321,20.831,130.343,20.853z M134.178,17.332v-1.273h0.427c0.097,0,0.153,0.011,0.169,0.032
			c0.011,0.011,0.003,0.041-0.023,0.089c-0.012,0.021-0.02,0.04-0.024,0.056c-0.006,0.022-0.008,0.043-0.008,0.064v5.124h-0.54
			v-2.272h-1.765v-0.451h1.765v-0.926h-1.765v-0.443H134.178z"/>
	</g>
	<g>
		<path style="fill:#010101;" d="M60.201,32.096c0.021,0.827-0.306,1.622-0.982,2.385c-0.65,0.736-1.48,1.297-2.489,1.684
			l-0.428-0.419c0.945-0.284,1.743-0.754,2.394-1.41c0.59-0.612,0.896-1.211,0.918-1.797h-3.005v-0.443H60.201z M61.926,38.228
			c0.435-0.215,0.652-0.524,0.652-0.927s-0.218-0.709-0.652-0.918c-0.44-0.199-1.091-0.298-1.95-0.298
			c-0.881,0-1.55,0.103-2.006,0.306c-0.435,0.209-0.652,0.513-0.652,0.911c0,0.414,0.218,0.728,0.652,0.943
			c0.456,0.214,1.125,0.322,2.006,0.322C60.824,38.566,61.475,38.453,61.926,38.228z M61.482,36.721
			c0.349,0.134,0.523,0.336,0.523,0.604c0,0.253-0.172,0.449-0.516,0.588c-0.354,0.14-0.867,0.209-1.538,0.209
			c-0.677,0-1.192-0.07-1.547-0.209c-0.345-0.14-0.516-0.335-0.516-0.588c0-0.263,0.166-0.464,0.499-0.604
			c0.349-0.134,0.846-0.202,1.49-0.202C60.588,36.519,61.122,36.586,61.482,36.721z M62.038,33.047v-1.62h0.428
			c0.102,0,0.161,0.008,0.177,0.024c0.011,0.016,0.003,0.051-0.024,0.104c-0.011,0.022-0.019,0.041-0.023,0.057
			c-0.006,0.021-0.009,0.043-0.009,0.064v4.246h-0.548v-0.926h-1.667v-0.443h1.667v-1.071h-1.659v-0.435H62.038z"/>
		<path style="fill:#010101;" d="M67.291,31.935c0.011,0.027,0,0.078-0.032,0.153c-0.026,0.054-0.046,0.1-0.056,0.137
			c-0.017,0.059-0.024,0.124-0.024,0.193c0,0.473,0.209,0.954,0.628,1.442c0.419,0.511,0.889,0.876,1.41,1.096l-0.451,0.395
			c-0.473-0.285-0.865-0.593-1.176-0.927c-0.313-0.338-0.54-0.701-0.686-1.087c-0.14,0.381-0.384,0.787-0.732,1.216
			c-0.366,0.419-0.747,0.747-1.145,0.983l-0.451-0.346c0.574-0.285,1.074-0.736,1.499-1.354c0.435-0.58,0.622-1.246,0.563-1.998
			l0.443,0.032C67.205,31.881,67.275,31.903,67.291,31.935z M70.256,38.219c0.43-0.215,0.645-0.513,0.645-0.895
			c0-0.403-0.215-0.703-0.645-0.902c-0.44-0.204-1.082-0.306-1.925-0.306c-0.86,0-1.51,0.103-1.95,0.306
			c-0.44,0.205-0.66,0.505-0.66,0.902c0,0.393,0.22,0.693,0.66,0.903c0.445,0.214,1.101,0.322,1.966,0.322
			C69.169,38.55,69.805,38.439,70.256,38.219z M69.813,36.753c0.332,0.134,0.499,0.33,0.499,0.588c0,0.237-0.167,0.425-0.499,0.564
			c-0.339,0.135-0.822,0.202-1.45,0.202c-0.677,0-1.198-0.067-1.563-0.202c-0.35-0.139-0.523-0.327-0.523-0.564
			c0-0.258,0.174-0.454,0.523-0.588c0.354-0.129,0.867-0.193,1.539-0.193C68.978,36.56,69.469,36.624,69.813,36.753z M70.691,31.411
			c0.118,0,0.188,0.014,0.209,0.041c0.011,0.021,0.003,0.062-0.023,0.121c-0.012,0.022-0.02,0.038-0.024,0.048
			c-0.006,0.016-0.008,0.032-0.008,0.048v2.385h1.257v0.443h-1.257v1.386h-0.548v-4.472H70.691z"/>
		<path style="fill:#010101;" d="M79.9,35.101h-3.126v1.031h-0.54v-1.031h-3.134v-0.443h6.8V35.101z M78.966,36.205v2.506H78.45
			v-2.063h-4.528v-0.443H78.966z M74.623,31.661c0.016,0.011,0.013,0.032-0.008,0.064c-0.017,0.021-0.027,0.035-0.032,0.04
			c-0.006,0.022-0.009,0.041-0.009,0.057v0.483h3.852v-0.669h0.427c0.086,0,0.137,0.006,0.153,0.016
			c0.011,0.011,0.008,0.035-0.008,0.073c-0.012,0.016-0.02,0.03-0.024,0.04c-0.006,0.016-0.008,0.035-0.008,0.057v2.159h-4.931
			v-2.345h0.387C74.534,31.637,74.602,31.645,74.623,31.661z M74.574,32.716v0.838h3.852v-0.838H74.574z"/>
		<path style="fill:#010101;" d="M84.5,37.349v-1.998h0.443c0.129,0,0.201,0.016,0.218,0.048c0.011,0.021,0.005,0.059-0.017,0.113
			c-0.016,0.027-0.026,0.048-0.032,0.064c-0.011,0.027-0.016,0.056-0.016,0.088v1.684h3.166v0.483h-7.041v-0.483H84.5z
			 M87.385,32.032v0.451h-4.593v2.111h4.649v0.443h-5.205v-3.005H87.385z"/>
		<path style="fill:#010101;" d="M95.957,32.096c0.021,0.827-0.306,1.622-0.982,2.385c-0.65,0.736-1.48,1.297-2.489,1.684
			l-0.428-0.419c0.945-0.284,1.743-0.754,2.394-1.41c0.59-0.612,0.896-1.211,0.918-1.797h-3.005v-0.443H95.957z M97.682,38.228
			c0.435-0.215,0.652-0.524,0.652-0.927s-0.218-0.709-0.652-0.918c-0.44-0.199-1.091-0.298-1.95-0.298
			c-0.881,0-1.55,0.103-2.006,0.306c-0.435,0.209-0.652,0.513-0.652,0.911c0,0.414,0.218,0.728,0.652,0.943
			c0.456,0.214,1.125,0.322,2.006,0.322C96.58,38.566,97.23,38.453,97.682,38.228z M97.238,36.721
			c0.349,0.134,0.523,0.336,0.523,0.604c0,0.253-0.172,0.449-0.516,0.588c-0.354,0.14-0.867,0.209-1.538,0.209
			c-0.677,0-1.192-0.07-1.547-0.209c-0.345-0.14-0.516-0.335-0.516-0.588c0-0.263,0.166-0.464,0.499-0.604
			c0.349-0.134,0.846-0.202,1.49-0.202C96.344,36.519,96.878,36.586,97.238,36.721z M97.794,33.047v-1.62h0.428
			c0.102,0,0.161,0.008,0.177,0.024c0.011,0.016,0.003,0.051-0.024,0.104c-0.011,0.022-0.019,0.041-0.023,0.057
			c-0.006,0.021-0.009,0.043-0.009,0.064v4.246h-0.548v-0.926h-1.667v-0.443h1.667v-1.071h-1.659v-0.435H97.794z"/>
		<path style="fill:#010101;" d="M103.208,31.878c0.017,0.022,0.009,0.067-0.023,0.137c-0.032,0.059-0.055,0.107-0.064,0.145
			c-0.017,0.059-0.024,0.126-0.024,0.201c0,0.5,0.228,1.018,0.685,1.555c0.43,0.51,0.907,0.854,1.435,1.031l-0.436,0.411
			c-0.457-0.242-0.856-0.54-1.2-0.894c-0.339-0.349-0.6-0.717-0.781-1.104c-0.167,0.414-0.422,0.812-0.766,1.192
			c-0.365,0.398-0.776,0.707-1.232,0.927l-0.428-0.363c0.64-0.252,1.169-0.682,1.588-1.289c0.456-0.655,0.654-1.337,0.596-2.046
			l0.451,0.041C103.125,31.833,103.192,31.852,103.208,31.878z M102.032,36.302c0.112,0,0.177,0.008,0.193,0.024
			c0.016,0.011,0.011,0.038-0.017,0.081c-0.016,0.027-0.029,0.048-0.04,0.064c-0.011,0.038-0.014,0.07-0.008,0.097v1.426h4.802
			v0.451h-5.357v-2.143H102.032z M106.447,31.427c0.118,0,0.188,0.014,0.209,0.041c0.011,0.027,0.003,0.067-0.023,0.121
			c-0.012,0.022-0.02,0.038-0.024,0.048c-0.006,0.016-0.008,0.032-0.008,0.048v2.635h1.257v0.443h-1.257v2.151h-0.548v-5.487
			H106.447z"/>
		<path style="fill:#010101;" d="M111.37,32.088c0.016,0.022,0.005,0.057-0.032,0.105c-0.022,0.032-0.038,0.062-0.049,0.088
			c-0.016,0.048-0.024,0.094-0.024,0.137c0,0.671,0.18,1.332,0.54,1.982c0.371,0.677,0.862,1.195,1.475,1.555l-0.459,0.419
			c-0.398-0.29-0.758-0.645-1.08-1.063c-0.425-0.526-0.685-1.031-0.781-1.515c-0.14,0.505-0.385,0.994-0.733,1.466
			c-0.37,0.516-0.792,0.905-1.265,1.168l-0.468-0.435c0.612-0.226,1.125-0.701,1.539-1.426c0.44-0.768,0.661-1.638,0.661-2.61
			l0.467,0.064C111.283,32.04,111.354,32.062,111.37,32.088z M114.947,31.419c0.021,0.005,0.016,0.03-0.017,0.072
			c-0.021,0.032-0.038,0.057-0.048,0.073c-0.012,0.032-0.017,0.064-0.017,0.097v6.8h-0.548v-7.098h0.371
			C114.834,31.379,114.92,31.398,114.947,31.419z"/>
		<path style="fill:#010101;" d="M120.764,31.621c0.021,0.016,0.019,0.057-0.009,0.121c-0.016,0.038-0.026,0.067-0.032,0.088
			c-0.011,0.038-0.016,0.073-0.016,0.105v2.57c0.596,0,1.259-0.042,1.99-0.129c0.794-0.097,1.463-0.217,2.006-0.362l0.072,0.443
			c-0.575,0.145-1.271,0.264-2.087,0.354c-0.849,0.097-1.689,0.145-2.521,0.145v-3.375h0.347
			C120.653,31.581,120.736,31.594,120.764,31.621z M125.791,35.907v2.715h-0.54v-0.226h-3.795v0.226h-0.54v-2.715H125.791z
			 M121.456,36.358v1.587h3.795v-1.587H121.456z M125.653,31.492c0.113,0,0.178,0.016,0.193,0.048
			c0.011,0.022,0.003,0.062-0.023,0.121l-0.032,0.088v1.95h1.216v0.451h-1.216v1.362h-0.54v-4.021H125.653z"/>
		<path style="fill:#010101;" d="M132.244,32.684v0.427h-1.7c0,0.494,0.14,0.978,0.419,1.45c0.307,0.521,0.709,0.878,1.209,1.071
			l-0.396,0.403c-0.312-0.139-0.612-0.375-0.902-0.709c-0.312-0.359-0.521-0.738-0.628-1.136c-0.172,0.354-0.433,0.704-0.781,1.047
			c-0.328,0.322-0.688,0.585-1.08,0.79l-0.427-0.395c0.499-0.177,0.961-0.51,1.386-0.999c0.44-0.521,0.66-1.028,0.66-1.522h-1.74
			v-0.427H132.244z M129.907,36.503c0.011,0.016,0.006,0.046-0.016,0.089c-0.011,0.027-0.017,0.046-0.017,0.056
			c-0.011,0.022-0.016,0.046-0.016,0.073v1.225h4.512v0.435h-5.067v-1.926h0.41C129.821,36.46,129.886,36.477,129.907,36.503z
			 M131.156,31.645v0.419h-1.74v-0.419H131.156z M134.202,31.476c0.016,0.022,0.008,0.054-0.024,0.097
			c-0.027,0.027-0.043,0.048-0.049,0.064c-0.016,0.032-0.023,0.064-0.023,0.097v4.939h-0.548v-2.296h-1.482v-0.451h1.482v-2.498
			h0.387C134.089,31.438,134.175,31.455,134.202,31.476z"/>
		<path style="fill:#010101;" d="M139.842,32.185v3.158h-3.175v-3.158H139.842z M137.19,32.62v2.288h2.136V32.62H137.19z
			 M137.812,36.245c0.112,0,0.177,0.011,0.193,0.032c0.016,0.011,0.01,0.035-0.017,0.073c-0.016,0.027-0.029,0.048-0.04,0.064
			c-0.011,0.027-0.014,0.056-0.008,0.088v1.33h4.544v0.451h-5.092v-2.039H137.812z M141.791,32.91v-1.547h0.427
			c0.103,0,0.161,0.011,0.178,0.032c0.011,0.016,0.002,0.043-0.024,0.081c-0.011,0.032-0.019,0.054-0.024,0.064
			c-0.005,0.027-0.008,0.051-0.008,0.072v5.302h-0.548v-1.926h-1.563v-0.451h1.563v-1.192h-1.555V32.91H141.791z"/>
		<path style="fill:#010101;" d="M148.269,31.621c0.021,0.016,0.019,0.057-0.009,0.121c-0.016,0.038-0.026,0.067-0.032,0.088
			c-0.011,0.038-0.016,0.073-0.016,0.105v2.57c0.596,0,1.259-0.042,1.99-0.129c0.794-0.097,1.463-0.217,2.006-0.362l0.072,0.443
			c-0.575,0.145-1.271,0.264-2.087,0.354c-0.849,0.097-1.689,0.145-2.521,0.145v-3.375h0.347
			C148.158,31.581,148.241,31.594,148.269,31.621z M153.296,35.907v2.715h-0.54v-0.226h-3.795v0.226h-0.54v-2.715H153.296z
			 M148.961,36.358v1.587h3.795v-1.587H148.961z M153.158,31.492c0.113,0,0.178,0.016,0.193,0.048
			c0.011,0.022,0.003,0.062-0.023,0.121l-0.032,0.088v1.95h1.216v0.451h-1.216v1.362h-0.54v-4.021H153.158z"/>
		<path style="fill:#010101;" d="M159.749,32.684v0.427h-1.7c0,0.494,0.14,0.978,0.419,1.45c0.307,0.521,0.709,0.878,1.209,1.071
			l-0.396,0.403c-0.312-0.139-0.612-0.375-0.902-0.709c-0.312-0.359-0.521-0.738-0.628-1.136c-0.172,0.354-0.433,0.704-0.781,1.047
			c-0.328,0.322-0.688,0.585-1.08,0.79l-0.427-0.395c0.499-0.177,0.961-0.51,1.386-0.999c0.44-0.521,0.66-1.028,0.66-1.522h-1.74
			v-0.427H159.749z M157.412,36.503c0.011,0.016,0.006,0.046-0.016,0.089c-0.011,0.027-0.017,0.046-0.017,0.056
			c-0.011,0.022-0.016,0.046-0.016,0.073v1.225h4.512v0.435h-5.067v-1.926h0.41C157.326,36.46,157.391,36.477,157.412,36.503z
			 M158.661,31.645v0.419h-1.74v-0.419H158.661z M161.707,31.476c0.016,0.022,0.008,0.054-0.024,0.097
			c-0.027,0.027-0.043,0.048-0.049,0.064c-0.016,0.032-0.023,0.064-0.023,0.097v4.939h-0.548v-2.296h-1.482v-0.451h1.482v-2.498
			h0.387C161.594,31.438,161.68,31.455,161.707,31.476z"/>
		<path style="fill:#010101;" d="M169.747,32.201v2.006h-4.398v1.225h4.576v0.427h-2.32v1.418h3.238v0.451h-7.018v-0.451h3.223
			v-1.418h-2.231v-2.063h4.407v-1.144h-4.447v-0.451H169.747z"/>
		<path style="fill:#010101;" d="M176.395,35.182c0.381-0.859,0.875-1.657,1.482-2.393h-3.037v-0.492h3.593v0.5
			c-0.618,0.736-1.111,1.528-1.482,2.377c-0.376,0.838-0.637,1.746-0.781,2.723h-0.58C175.744,36.936,176.013,36.031,176.395,35.182
			z"/>
		<path style="fill:#010101;" d="M181.953,36.471h-2.481v-0.435l2.441-3.738h0.58v3.738h0.766v0.435h-0.766v1.426h-0.54V36.471z
			 M181.953,32.982l-1.99,3.053h1.99V32.982z"/>
		<path style="fill:#010101;" d="M184.829,36.253c0,0.43,0.113,0.765,0.339,1.007s0.539,0.363,0.942,0.363
			c0.424,0,0.752-0.115,0.982-0.347c0.231-0.226,0.347-0.542,0.347-0.951c0-0.408-0.121-0.709-0.362-0.902
			c-0.236-0.193-0.6-0.29-1.088-0.29l-0.25,0.008v-0.419l0.21,0.008c0.435,0,0.768-0.094,0.999-0.283
			c0.23-0.189,0.347-0.464,0.347-0.825c0-0.318-0.103-0.574-0.307-0.768c-0.209-0.194-0.48-0.291-0.813-0.291
			c-0.382,0-0.677,0.11-0.887,0.33c-0.209,0.221-0.319,0.538-0.33,0.951h-0.516c0.021-0.542,0.186-0.967,0.491-1.273
			c0.307-0.3,0.723-0.451,1.249-0.451c0.5,0,0.896,0.138,1.192,0.412c0.295,0.269,0.443,0.632,0.443,1.089
			c0,0.279-0.07,0.53-0.21,0.75c-0.134,0.21-0.33,0.382-0.588,0.517c0.312,0.091,0.551,0.261,0.717,0.508
			c0.172,0.252,0.258,0.567,0.258,0.944c0,0.527-0.166,0.946-0.499,1.258c-0.339,0.312-0.793,0.468-1.361,0.468
			c-0.586,0-1.043-0.162-1.37-0.484c-0.333-0.322-0.499-0.762-0.499-1.321v-0.008H184.829z"/>
		<path style="fill:#010101;" d="M193.04,34.875v0.443h-4.109v-0.443H193.04z"/>
		<path style="fill:#010101;" d="M195.65,33.305c-0.135,0.107-0.313,0.188-0.532,0.242c-0.221,0.054-0.491,0.081-0.813,0.081h-0.089
			v-0.354h0.04c0.473,0,0.827-0.091,1.063-0.274s0.368-0.473,0.396-0.87h0.475v5.769h-0.539V33.305z"/>
		<path style="fill:#010101;" d="M199.315,36.253c0,0.43,0.113,0.765,0.339,1.007s0.539,0.363,0.942,0.363
			c0.424,0,0.752-0.115,0.982-0.347c0.231-0.226,0.347-0.542,0.347-0.951c0-0.408-0.121-0.709-0.362-0.902
			c-0.236-0.193-0.6-0.29-1.088-0.29l-0.25,0.008v-0.419l0.21,0.008c0.435,0,0.768-0.094,0.999-0.283
			c0.23-0.189,0.347-0.464,0.347-0.825c0-0.318-0.103-0.574-0.307-0.768c-0.209-0.194-0.48-0.291-0.813-0.291
			c-0.382,0-0.677,0.11-0.887,0.33c-0.209,0.221-0.319,0.538-0.33,0.951h-0.516c0.021-0.542,0.186-0.967,0.491-1.273
			c0.307-0.3,0.723-0.451,1.249-0.451c0.5,0,0.896,0.138,1.192,0.412c0.295,0.269,0.443,0.632,0.443,1.089
			c0,0.279-0.07,0.53-0.21,0.75c-0.134,0.21-0.33,0.382-0.588,0.517c0.312,0.091,0.551,0.261,0.717,0.508
			c0.172,0.252,0.258,0.567,0.258,0.944c0,0.527-0.166,0.946-0.499,1.258c-0.339,0.312-0.793,0.468-1.361,0.468
			c-0.586,0-1.043-0.162-1.37-0.484c-0.333-0.322-0.499-0.762-0.499-1.321v-0.008H199.315z"/>
	</g>
	<g>
	</g>
	<g>
	</g>
	<g>
	</g>
	<g>
	</g>
	<g>
	</g>
	<g>
	</g>
</g>
</svg>
